<?xml version="1.0" encoding="UTF-8"?>
<svg xmlns="http://www.w3.org/2000/svg" version="1.1" viewBox="0 0 26.07 15.81">
  <defs>
    <style>
      .cls-1 {
        fill: #bbe5ff;
      }
    </style>
  </defs>
  <!-- Generator: Adobe Illustrator 28.6.0, SVG Export Plug-In . SVG Version: 1.2.0 Build 709)  -->
  <g>
    <g id="Layer_1">
      <g>
        <path class="cls-1" d="M18.42,7.9c0,3.57-2.89,6.46-6.46,6.46-1.65,0-3.17-.62-4.31-1.65.55.19,1.14.29,1.77.29,3.12,0,5.65-2.53,5.65-5.65,0-2.91-2.2-5.31-5.03-5.62.61-.19,1.25-.29,1.92-.29,3.57,0,6.46,2.89,6.46,6.46Z"/>
        <polygon class="cls-1" points="9.34 8.09 10.04 7.93 9.38 7.65 9.58 7.42 9.28 7.49 9.35 6.76 8.87 7.31 8.72 7.05 8.69 7.35 8.02 7.06 8.4 7.69 8.1 7.75 8.38 7.87 7.9 8.42 8.61 8.26 8.58 8.56 8.78 8.33 9.15 8.95 9.21 8.23 9.49 8.35 9.34 8.09"/>
        <polygon class="cls-1" points="12.91 5.57 13.21 5.28 12.79 5.33 12.83 5.16 12.7 5.28 12.52 4.9 12.44 5.32 12.29 5.23 12.36 5.39 11.94 5.45 12.31 5.65 12.19 5.77 12.36 5.75 12.29 6.16 12.59 5.87 12.67 6.03 12.7 5.86 13.07 6.06 12.89 5.68 13.06 5.65 12.91 5.57"/>
        <polygon class="cls-1" points="13 9.45 13.14 9.19 12.88 9.32 12.86 9.2 12.81 9.3 12.61 9.09 12.64 9.38 12.53 9.36 12.61 9.45 12.35 9.57 12.63 9.62 12.57 9.73 12.68 9.68 12.72 9.96 12.86 9.71 12.94 9.8 12.93 9.68 13.21 9.73 13.01 9.52 13.12 9.47 13 9.45"/>
        <polygon class="cls-1" points="10.06 11.18 10.31 11.03 10.02 11 10.07 10.89 9.97 10.95 9.9 10.67 9.79 10.94 9.7 10.86 9.73 10.98 9.44 10.95 9.66 11.14 9.55 11.2 9.67 11.21 9.56 11.48 9.81 11.33 9.83 11.45 9.88 11.34 10.1 11.53 10.04 11.25 10.15 11.26 10.06 11.18"/>
        <polygon class="cls-1" points="10.02 3.59 10.11 3.31 9.88 3.48 9.84 3.37 9.8 3.49 9.56 3.32 9.66 3.6 9.54 3.6 9.64 3.67 9.41 3.84 9.7 3.84 9.66 3.95 9.76 3.88 9.85 4.15 9.94 3.87 10.04 3.94 10 3.83 10.29 3.82 10.05 3.66 10.14 3.58 10.02 3.59"/>
      </g>
    </g>
  </g>
</svg>