<?xml version="1.0" encoding="UTF-8"?>
<svg xmlns="http://www.w3.org/2000/svg" version="1.1" viewBox="0 0 26.07 15.81">
  <defs>
    <style>
      .cls-1 {
        fill: #bbe5ff;
      }
    </style>
  </defs>
  <!-- Generator: Adobe Illustrator 28.6.0, SVG Export Plug-In . SVG Version: 1.2.0 Build 709)  -->
  <g>
    <g id="Layer_1">
      <g>
        <path class="cls-1" d="M20.86,8.29c-.82,0-1.59.22-2.27.58-.57-1.5-1.64-2.76-3.01-3.56-1.02-.59-2.2-.93-3.46-.93-2.77,0-5.15,1.63-6.26,3.98-.21-.03-.43-.07-.66-.07C2.47,8.29.25,10.51.25,13.25c0,.59.11,1.16.3,1.69h24.97c.2-.53.3-1.1.3-1.69,0-1.4-.58-2.67-1.52-3.57-.89-.87-2.1-1.39-3.44-1.39Z"/>
        <path class="cls-1" d="M15.97,4.97c1.23.75,2.25,1.87,2.88,3.22.65-.27,1.33-.4,2.01-.4,1.32,0,2.54.47,3.49,1.27v-.03c0-.31-.04-.62-.09-.92l1.85-1.34h-2.29c-.14-.31-.32-.59-.53-.87l1.04-2.03-2.04,1.04c-.69-.53-1.51-.88-2.41-1.01l-.71-2.16-.7,2.16c-.34.05-.68.13-1,.24l-1.61-1.62.35,2.26c-.08.06-.16.12-.24.19Z"/>
      </g>
    </g>
  </g>
</svg>