<?xml version="1.0" encoding="UTF-8"?>
<svg xmlns="http://www.w3.org/2000/svg" version="1.1" viewBox="0 0 26.07 15.81">
  <defs>
    <style>
      .cls-1 {
        fill: #bbe5ff;
      }
    </style>
  </defs>
  <!-- Generator: Adobe Illustrator 28.6.0, SVG Export Plug-In . SVG Version: 1.2.0 Build 709)  -->
  <g>
    <g id="Layer_1">
      <path class="cls-1" d="M25.82,9.13c0-2.74-2.22-4.96-4.96-4.96-.82,0-1.59.22-2.27.58-.99-2.62-3.51-4.49-6.47-4.49-2.77,0-5.15,1.63-6.26,3.98-.21-.03-.43-.07-.66-.07-.81,0-1.57.21-2.24.56-.09.02-.18.06-.26.13,0,0,0,.01-.01.02C1.23,5.74.25,7.31.25,9.13c0,.59.11,1.16.3,1.69h7.4l3.6,3.6c.1.1.23.15.35.15s.26-.05.35-.15c.2-.2.2-.51,0-.71l-2.89-2.89h3.01l4.58,4.58c.1.1.23.15.35.15s.26-.05.35-.15c.2-.2.2-.51,0-.71l-3.87-3.87h2.65l3.6,3.6c.1.1.23.15.35.15s.26-.05.35-.15c.2-.2.2-.51,0-.71l-2.89-2.89h7.67c.2-.53.3-1.1.3-1.69Z"/>
    </g>
  </g>
</svg>