<?xml version="1.0" encoding="UTF-8"?>
<svg xmlns="http://www.w3.org/2000/svg" version="1.1" viewBox="0 0 19.82 19.82">
  <defs>
    <style>
      .cls-1 {
        fill: #010e1c;
      }
    </style>
  </defs>
  <!-- Generator: Adobe Illustrator 28.6.0, SVG Export Plug-In . SVG Version: 1.2.0 Build 709)  -->
  <g>
    <g id="Layer_1">
      <g>
        <path class="cls-1" d="M16.66,15.13l-1.56,1.56-4.01-4-1.47-1.47c.7-.3,1.26-.85,1.59-1.54l5.45,5.45Z"/>
        <path class="cls-1" d="M8.34,3.14c-2.85,0-5.17,2.32-5.17,5.17s2.32,5.17,5.17,5.17c1.01,0,1.96-.29,2.75-.79.63-.4,1.17-.93,1.58-1.55.53-.81.84-1.78.84-2.83,0-2.85-2.31-5.17-5.17-5.17ZM9.62,11.22c-.39.18-.82.27-1.28.27-1.75,0-3.18-1.42-3.18-3.18s1.43-3.18,3.18-3.18,3.18,1.43,3.18,3.18c0,.49-.11.95-.31,1.37-.33.69-.89,1.24-1.59,1.54Z"/>
      </g>
    </g>
  </g>
</svg>