<?xml version="1.0" encoding="UTF-8"?>
<svg xmlns="http://www.w3.org/2000/svg" version="1.1" viewBox="0 0 26.07 15.81">
  <defs>
    <style>
      .cls-1 {
        fill: #bbe5ff;
      }
    </style>
  </defs>
  <!-- Generator: Adobe Illustrator 28.6.0, SVG Export Plug-In . SVG Version: 1.2.0 Build 709)  -->
  <g>
    <g id="Layer_1">
      <g>
        <path class="cls-1" d="M13.05,13.21c-.12-.05-.17-.14-.17-.27,0-.22,0-.45,0-.69-.04.02-.07.03-.1.05-.25.14-.5.28-.74.43-.18.1-.28.07-.38-.1-.05-.09-.11-.18-.16-.28-.09-.15-.06-.26.1-.35.4-.23.8-.46,1.2-.69.06-.03.08-.07.08-.14,0-.25,0-.5,0-.77-.04.03-.07.05-.1.07-.27.18-.53.37-.79.55-.08.06-.17.09-.27.04-.1-.05-.11-.14-.11-.24,0-.4,0-.8,0-1.22-.04.02-.06.03-.09.04-.17.09-.33.19-.5.28-.06.03-.08.07-.08.13,0,.45,0,.9,0,1.36,0,.21-.07.28-.28.28-.1,0-.2,0-.3,0-.19,0-.27-.08-.27-.27,0-.28,0-.56,0-.84,0-.04,0-.07,0-.13-.04.02-.07.04-.1.05-.26.15-.52.3-.78.45-.18.1-.28.08-.39-.11-.05-.08-.09-.16-.14-.24-.11-.19-.08-.29.1-.39.26-.15.52-.3.78-.45.03-.02.06-.03.1-.06-.04-.02-.07-.04-.1-.06-.25-.14-.49-.29-.74-.43-.16-.1-.19-.2-.1-.36.05-.1.11-.19.17-.28.09-.15.2-.18.35-.09.4.23.79.46,1.19.69.07.04.11.04.18,0,.16-.1.33-.19.51-.29-.08-.04-.14-.06-.2-.09-.35-.15-.69-.31-1.04-.46-.1-.04-.19-.1-.19-.23,0-.13.09-.18.19-.22.37-.16.74-.33,1.11-.49.03-.01.06-.03.1-.05-.07-.06-.13-.12-.19-.17-.11-.1-.22-.19-.33-.29-.05-.05-.09-.05-.14-.01-.39.23-.77.45-1.16.68-.19.11-.29.08-.4-.11-.05-.08-.09-.16-.14-.23-.11-.19-.08-.29.1-.39.26-.15.52-.3.78-.45,0,0,.01,0,.03-.02-.03-.02-.06-.04-.09-.06-.26-.15-.52-.3-.78-.45-.19-.11-.21-.2-.1-.39.05-.09.1-.17.15-.26.09-.16.2-.19.36-.1.27.15.54.31.8.46.03.02.06.03.1.05,0-.15,0-.29,0-.43,0-.19,0-.38,0-.57,0-.17.08-.24.24-.25.12,0,.24,0,.36,0,.17,0,.24.08.24.25,0,.47,0,.93,0,1.4,0,.06.02.11.07.15.17.15.34.3.52.45.02.01.04.03.07.05,0-.05,0-.09,0-.12,0-.38,0-.75,0-1.13,0-.1.01-.19.11-.25.1-.05.19-.02.28.04.26.18.52.36.79.54.03.02.05.03.1.06,0-.23-.01-.45,0-.67.01-.14-.04-.22-.17-.28-.37-.2-.73-.41-1.09-.62-.2-.11-.22-.2-.11-.41.05-.08.09-.17.14-.25.09-.16.2-.19.36-.1.25.14.5.28.74.43.03.02.06.04.11.06,0-.04,0-.07,0-.09,0-.2,0-.41,0-.61,0-.19.08-.26.27-.26.1,0,.2,0,.3,0,.21,0,.28.07.28.28,0,.19,0,.38,0,.57,0,.03,0,.06,0,.12.08-.04.14-.08.19-.11.22-.13.44-.25.66-.38.17-.09.27-.07.36.1.06.09.11.19.16.29.09.16.06.26-.1.35-.4.23-.8.46-1.2.69-.06.03-.08.07-.08.14,0,.25,0,.5,0,.77.04-.03.07-.04.1-.06.27-.18.53-.37.79-.55.08-.06.17-.1.27-.04.1.05.11.14.11.24,0,.4,0,.8,0,1.22.04-.02.06-.02.09-.04.17-.09.33-.19.5-.28.06-.03.08-.07.08-.13,0-.45,0-.9,0-1.36,0-.21.07-.28.28-.29.1,0,.19,0,.29,0,.21,0,.28.07.29.28,0,.28,0,.55,0,.83,0,.04,0,.07,0,.13.04-.02.07-.03.09-.05.26-.15.52-.3.79-.45.18-.1.28-.08.39.1.05.09.11.18.16.28.08.15.05.26-.09.34-.27.16-.54.31-.8.46-.03.02-.06.03-.1.06.05.03.09.06.13.08.24.14.47.27.71.41.16.1.19.2.1.36-.05.1-.11.19-.17.28-.09.15-.2.18-.35.09-.4-.23-.8-.46-1.2-.7-.06-.04-.1-.04-.16,0-.16.1-.33.19-.51.29.04.02.07.04.11.05.39.17.77.34,1.16.51.13.06.18.14.16.25-.02.1-.09.14-.17.18-.38.17-.75.33-1.13.5-.03.01-.06.03-.1.05.02.02.03.04.05.05.16.14.31.28.47.42.04.04.08.04.13.01.39-.23.78-.45,1.17-.68.19-.11.29-.08.4.11.05.09.1.17.15.26.09.16.06.26-.1.36-.25.14-.49.29-.74.43-.03.02-.05.03-.09.06.09.05.18.1.26.15.21.12.42.24.63.36.16.09.19.2.1.36-.05.09-.1.17-.15.26-.11.18-.2.21-.38.11-.26-.15-.52-.3-.78-.45-.03-.02-.06-.03-.11-.06,0,.12,0,.23,0,.33,0,.22,0,.43,0,.65,0,.19-.07.27-.26.27-.11,0-.22,0-.33,0-.18,0-.25-.08-.25-.26,0-.46,0-.92,0-1.38,0-.08-.02-.13-.08-.18-.19-.16-.37-.32-.57-.5,0,.06,0,.09,0,.13,0,.38,0,.75,0,1.13,0,.1-.01.19-.11.25-.1.05-.19.02-.28-.04-.26-.18-.52-.36-.79-.54-.03-.02-.05-.03-.1-.06,0,.21.02.4,0,.59-.02.21.05.31.23.41.35.18.69.39,1.04.59.18.1.2.2.1.38-.05.08-.09.17-.14.25-.1.18-.21.21-.38.11-.24-.14-.48-.28-.73-.42-.03-.02-.06-.04-.11-.06,0,.04,0,.06,0,.09,0,.2,0,.4,0,.6,0,.13-.04.22-.17.27h-.52Z"/>
        <circle class="cls-1" cx="7.1" cy="7.9" r=".68"/>
        <circle class="cls-1" cx="6.11" cy="5.92" r=".64"/>
        <circle class="cls-1" cx="4.69" cy="7.51" r=".39"/>
        <circle class="cls-1" cx="19.95" cy="9.27" r=".86"/>
        <circle class="cls-1" cx="19.63" cy="6.88" r=".54"/>
        <circle class="cls-1" cx="22.53" cy="8.35" r=".68"/>
        <circle class="cls-1" cx="21.59" cy="6.63" r=".29"/>
        <circle class="cls-1" cx="5.85" cy="9.75" r=".38"/>
        <circle class="cls-1" cx="3.44" cy="8.69" r=".59"/>
      </g>
    </g>
  </g>
</svg>