<?xml version="1.0" encoding="UTF-8"?>
<svg xmlns="http://www.w3.org/2000/svg" version="1.1" viewBox="0 0 26.07 15.81">
  <defs>
    <style>
      .cls-1 {
        fill: #bbe5ff;
      }
    </style>
  </defs>
  <!-- Generator: Adobe Illustrator 28.6.0, SVG Export Plug-In . SVG Version: 1.2.0 Build 709)  -->
  <g>
    <g id="Layer_1">
      <path class="cls-1" d="M17.66,11.07l2.38.38-1.71-1.71c.2-.56.31-1.16.31-1.79,0-.33-.03-.65-.09-.96l1.95-1.42h-2.41c-.16-.32-.35-.63-.56-.92l1.1-2.15-2.15,1.1c-.73-.55-1.6-.93-2.55-1.06l-.75-2.3-.75,2.3c-.36.05-.71.13-1.04.25l-1.71-1.71.38,2.38c-.76.53-1.38,1.26-1.79,2.1h-2.41l1.95,1.42c-.06.31-.09.63-.09.96,0,.04,0,.07,0,.11l-2.15,1.1,2.38.38c.27.91.78,1.71,1.45,2.36l-.75,2.29,1.95-1.41c.32.17.65.31,1,.41l.38,2.38,1.09-2.15s.07,0,.11,0c.93,0,1.81-.23,2.58-.65l1.95,1.41-.75-2.29c.26-.25.49-.52.7-.82Z"/>
    </g>
  </g>
</svg>