<?xml version="1.0" encoding="UTF-8"?>
<svg xmlns="http://www.w3.org/2000/svg" version="1.1" viewBox="0 0 26.07 15.81">
  <defs>
    <style>
      .cls-1 {
        fill: #bbe5ff;
      }
    </style>
  </defs>
  <!-- Generator: Adobe Illustrator 28.6.0, SVG Export Plug-In . SVG Version: 1.2.0 Build 709)  -->
  <g>
    <g id="Layer_1">
      <g>
        <path class="cls-1" d="M12.45,7.53c-.05-.15-.11-.31-.18-.44-.67.41-1.13,1.17-1.13,2.01,0,.65.26,1.24.68,1.68h.78c-.59-.33-.98-.95-.98-1.68,0-.65.33-1.23.83-1.57Z"/>
        <path class="cls-1" d="M13.53,7.19c.34,0,.65.09.92.23,0-.19-.04-.37-.08-.55h0c-.27-.11-.55-.16-.85-.16-.13,0-.24,0-.36.03.08.14.13.3.19.46.06,0,.11,0,.16,0Z"/>
        <path class="cls-1" d="M15.51,9.98c.13.05.26-.03.3-.15.08-.23.12-.47.12-.72,0-.54-.18-1.05-.5-1.44v.06c0,.17-.11.34-.25.41.17.29.27.62.27.97,0,.2-.03.39-.09.58-.05.13.03.26.15.3Z"/>
        <path class="cls-1" d="M21.15,11.02h-11.07s-.1,0-.14,0c-1.44-.07-2.59-1.27-2.59-2.73s1.22-2.73,2.73-2.73c.22,0,.42.03.63.08.13-.13.29-.26.44-.38-.34-.12-.69-.18-1.07-.18-1.77,0-3.22,1.44-3.22,3.22s1.44,3.23,3.22,3.23h11.07c.13,0,.24-.11.24-.24s-.12-.24-.24-.24Z"/>
        <path class="cls-1" d="M11.87,12.24c-.26-.13-.5-.31-.71-.5h-.37c.18.18.39.36.61.5h.47Z"/>
        <path class="cls-1" d="M19.87,12.48h-9.94c-2.63,0-4.77-2.14-4.77-4.77s2.14-4.78,4.77-4.78c1.36,0,2.58.57,3.45,1.47.13,0,.24-.02.37-.02.09,0,.17,0,.26,0-.96-1.18-2.43-1.95-4.07-1.95-2.9,0-5.25,2.36-5.25,5.26s2.35,5.25,5.25,5.25h9.94c.13,0,.24-.11.24-.24s-.11-.24-.24-.24Z"/>
        <path class="cls-1" d="M12.85,9.4c.13.04.26-.03.3-.15.1-.32.14-.64.14-.97,0-.28-.04-.55-.11-.8-.02-.09-.04-.15-.07-.23-.05-.16-.12-.31-.18-.45-.04-.08-.09-.14-.13-.21-.19-.31-.43-.58-.72-.8-.14.09-.29.17-.42.28.27.18.5.42.68.7.05.07.09.13.13.2.08.14.14.29.19.44.03.08.06.16.07.25.05.2.08.4.08.62,0,.28-.04.56-.13.83-.04.13.04.26.16.3Z"/>
        <path class="cls-1" d="M13.59,4.64c-.11,0-.22,0-.32.02-.59.07-1.14.25-1.62.53-.09.05-.16.1-.24.15h0c-.15.11-.29.22-.42.35-.08.06-.14.13-.2.19-.74.75-1.2,1.78-1.2,2.92,0,.71.18,1.39.5,1.97h.56c-.37-.57-.58-1.25-.58-1.97,0-1.08.46-2.05,1.2-2.73.06-.06.13-.11.18-.16.14-.11.29-.2.44-.29.08-.05.15-.1.24-.13.45-.22.96-.36,1.51-.37.04,0,.07,0,.11,0,.07,0,.13,0,.19,0,.21,0,.42.04.62.09.11.02.2.04.3.08,1.49.46,2.57,1.86,2.57,3.51,0,.13.12.24.24.24.13,0,.24-.12.24-.24,0-2.03-1.45-3.73-3.37-4.09-.11-.02-.21-.04-.33-.05-.15-.02-.31-.03-.46-.03-.05,0-.11,0-.15,0Z"/>
        <path class="cls-1" d="M14.65,6.99c.03.19.05.39.05.6,0,.04,0,.09,0,.13,0,.13.11.24.24.24.03,0,.07,0,.1-.02.09-.04.14-.13.14-.22,0-.12,0-.23-.02-.35,0-.12,0-.23-.03-.35-.07-.54-.22-1.06-.45-1.53-.19-.06-.39-.1-.6-.12.23.41.4.86.51,1.33.02.1.04.19.05.29Z"/>
      </g>
    </g>
  </g>
</svg>